ModelForces
version=1
nRows=4
nColumns=158
inDegrees=no

This file contains the forces exerted on a model during a simulation.

A force is a generalized force, meaning that it can be either a force (N) or a torque (Nm).

Units are S.I. units (second, meters, Newtons, ...)
Angles are in degrees.

endheader
time	glut_med1_r	glut_med2_r	glut_med3_r	glut_min1_r	glut_min2_r	glut_min3_r	semimem_r	semiten_r	bifemlh_r	bifemsh_r	sar_r	add_long_r	add_brev_r	add_mag1_r	add_mag2_r	add_mag3_r	tfl_r	pect_r	grac_r	glut_max1_r	glut_max2_r	glut_max3_r	iliacus_r	psoas_r	quad_fem_r	gem_r	peri_r	rect_fem_r	vas_med_r	vas_int_r	vas_lat_r	med_gas_r	lat_gas_r	soleus_r	tib_post_r	flex_dig_r	flex_hal_r	tib_ant_r	per_brev_r	per_long_r	per_tert_r	ext_dig_r	ext_hal_r	glut_med1_l	glut_med2_l	glut_med3_l	glut_min1_l	glut_min2_l	glut_min3_l	semimem_l	semiten_l	bifemlh_l	bifemsh_l	sar_l	add_long_l	add_brev_l	add_mag1_l	add_mag2_l	add_mag3_l	tfl_l	pect_l	grac_l	glut_max1_l	glut_max2_l	glut_max3_l	iliacus_l	psoas_l	quad_fem_l	gem_l	peri_l	rect_fem_l	vas_med_l	vas_int_l	vas_lat_l	med_gas_l	lat_gas_l	soleus_l	tib_post_l	flex_dig_l	flex_hal_l	tib_ant_l	per_brev_l	per_long_l	per_tert_l	ext_dig_l	ext_hal_l	ercspn_r	ercspn_l	intobl_r	intobl_l	extobl_r	extobl_l	femur_lat_meniscii_r.femur_lat_r.force.X	femur_lat_meniscii_r.femur_lat_r.force.Y	femur_lat_meniscii_r.femur_lat_r.force.Z	femur_lat_meniscii_r.femur_lat_r.torque.X	femur_lat_meniscii_r.femur_lat_r.torque.Y	femur_lat_meniscii_r.femur_lat_r.torque.Z	femur_lat_meniscii_r.meniscus_lat_r.force.X	femur_lat_meniscii_r.meniscus_lat_r.force.Y	femur_lat_meniscii_r.meniscus_lat_r.force.Z	femur_lat_meniscii_r.meniscus_lat_r.torque.X	femur_lat_meniscii_r.meniscus_lat_r.torque.Y	femur_lat_meniscii_r.meniscus_lat_r.torque.Z	femur_med_meniscii_r.femur_med_r.force.X	femur_med_meniscii_r.femur_med_r.force.Y	femur_med_meniscii_r.femur_med_r.force.Z	femur_med_meniscii_r.femur_med_r.torque.X	femur_med_meniscii_r.femur_med_r.torque.Y	femur_med_meniscii_r.femur_med_r.torque.Z	femur_med_meniscii_r.meniscus_med_r.force.X	femur_med_meniscii_r.meniscus_med_r.force.Y	femur_med_meniscii_r.meniscus_med_r.force.Z	femur_med_meniscii_r.meniscus_med_r.torque.X	femur_med_meniscii_r.meniscus_med_r.torque.Y	femur_med_meniscii_r.meniscus_med_r.torque.Z	femur_med_tibia_r.tibia_upper_r.force.X	femur_med_tibia_r.tibia_upper_r.force.Y	femur_med_tibia_r.tibia_upper_r.force.Z	femur_med_tibia_r.tibia_upper_r.torque.X	femur_med_tibia_r.tibia_upper_r.torque.Y	femur_med_tibia_r.tibia_upper_r.torque.Z	femur_med_tibia_r.femur_med_r.force.X	femur_med_tibia_r.femur_med_r.force.Y	femur_med_tibia_r.femur_med_r.force.Z	femur_med_tibia_r.femur_med_r.torque.X	femur_med_tibia_r.femur_med_r.torque.Y	femur_med_tibia_r.femur_med_r.torque.Z	femur_lat_tibia_r.tibia_upper_r.force.X	femur_lat_tibia_r.tibia_upper_r.force.Y	femur_lat_tibia_r.tibia_upper_r.force.Z	femur_lat_tibia_r.tibia_upper_r.torque.X	femur_lat_tibia_r.tibia_upper_r.torque.Y	femur_lat_tibia_r.tibia_upper_r.torque.Z	femur_lat_tibia_r.femur_lat_r.force.X	femur_lat_tibia_r.femur_lat_r.force.Y	femur_lat_tibia_r.femur_lat_r.force.Z	femur_lat_tibia_r.femur_lat_r.torque.X	femur_lat_tibia_r.femur_lat_r.torque.Y	femur_lat_tibia_r.femur_lat_r.torque.Z	aACL_R	pACL_R	aPCL_R	pPCL_R	aMCL_R	mMCL_R	pMCL_R	aLCL_R	mLCL_R	pLCL_R	aPCL_L	pPCL_L	aMCL_L	aLCL_L	ground_prescribedForce_-40_fx	ground_prescribedForce_-40_fy	ground_prescribedForce_-40_fz
      0.76508476	      7.54718249	      5.66522377	      6.06414230	      2.65869706	      3.17868827	      3.19241749	      3.30991927	      3.83686206	      5.62532928	      6.56785212	      0.00000000	      5.61275040	      0.00000000	      2.91865302	      2.45348961	      3.98702813	      3.51013783	      2.23851161	      1.48737906	      3.65573272	      5.55548330	      4.14702099	     22.64664456	     12.96577820	      3.62634169	      2.85416172	      4.08951337	     18.32326660	     11.10538193	     11.82606456	     16.16223751	      0.00000000	      0.92484147	     11.25986118	     13.97031685	      2.79239849	      2.88562574	     13.44834805	      3.93841204	      8.12519595	     10.09459635	      8.04878027	      1.90508070	      7.54718249	      5.66522377	      6.06414230	      2.65869706	      3.17868827	      3.19241749	      8.74413059	      4.08282290	      7.68197011	      7.21535867	      1.51960737	      5.61275040	      0.00000000	      2.91865302	      2.45348961	      3.98702813	      4.09675605	      2.23851161	      1.55856052	      3.65573272	      5.55548330	      4.14702099	     22.64664456	     12.96577820	      3.62634169	      2.85416172	      4.08951337	     10.66596546	      6.59205323	      7.56159834	      8.13076542	     13.95100598	      6.47777152	     31.08300840	     42.35790995	      2.56619442	      2.83224455	      8.45089213	      4.33350497	     12.44546163	      2.00571772	      5.37060724	      1.70434268	     25.00433998	     25.00433998	      8.99926883	      8.99926883	     26.80395233	     26.80395233	     78.78949563	     69.99552191	     12.95428471	     -7.04448885	      1.96997981	     32.37779628	    -78.78949563	    -69.99552191	    -12.95428471	      2.22313297	     -2.37430923	     -0.86903636	    107.73920255	     48.14515999	      0.95584502	      0.61483392	     -2.22370306	     43.97459401	   -107.73920255	    -48.14515999	     -0.95584502	     -0.86373494	      1.94048641	     -1.65402239	      0.00000000	      0.00000000	      0.00000000	      0.00000000	      0.00000000	      0.00000000	      0.00000000	      0.00000000	      0.00000000	      0.00000000	      0.00000000	      0.00000000	      0.00000000	      0.00000000	      0.00000000	      0.00000000	      0.00000000	      0.00000000	      0.00000000	      0.00000000	      0.00000000	      0.00000000	      0.00000000	      0.00000000	     54.44900248	     14.16689165	     86.14441227	     29.05607966	      0.00000000	     -0.39160167	      0.00000000	      0.00000000	      0.00000000	      0.00000000	      0.00000000	      0.00000000	      0.00000001	      0.00000000	     84.26488000	    -70.70660000	      0.00000000
      0.76537774	      7.54717623	      5.66521946	      6.06413762	      2.65869512	      3.17868617	      3.19241485	      3.31040865	      3.83705993	      5.62576560	      6.57071942	      0.00000000	      5.61274608	      2.17151579	      2.91865082	      2.45348771	      3.98702471	      3.51078981	      2.23850997	      1.48754732	      3.65572994	      5.55547906	      4.14701777	     22.64663675	     12.96576941	      3.62633899	      2.85416045	      4.08950829	     18.32383454	     11.10653557	     11.82725159	     16.16359089	      0.00000000	      0.92527871	     11.26072630	     13.96821386	      2.79423628	      2.88324652	     13.44867078	      3.93965844	      8.12758610	     10.09569288	      8.04333144	      1.90598727	      7.54717623	      5.66521946	      6.06413762	      2.65869512	      3.17868617	      3.19241485	      8.74412146	      4.08281955	      7.68196252	      7.21535329	      1.51960627	      5.61274608	      0.00000000	      2.91865082	      2.45348771	      3.98702471	      4.09675393	      2.23850997	      1.55855937	      3.65572994	      5.55547906	      4.14701777	     22.64663675	     12.96576941	      3.62633899	      2.85416045	      4.08950829	     10.66595514	      6.59204810	      7.56159234	      8.13075900	     13.95098192	      6.47776033	     31.08296989	     42.35789494	      2.56594773	      2.83213377	      8.45088436	      4.33350030	     12.44545008	      2.00571636	      5.37072483	      1.70437429	     25.00432172	     25.00432172	      8.99926167	      8.99926167	     26.80394590	     26.80394590	     78.76166582	     69.93789972	     12.93588535	     -7.03545312	      1.96912514	     32.36658699	    -78.76166582	    -69.93789972	    -12.93588535	      2.22099711	     -2.37303574	     -0.86945916	    107.77652642	     48.14718309	      0.95464064	      0.61541179	     -2.22459488	     43.99004788	   -107.77652642	    -48.14718309	     -0.95464064	     -0.86387678	      1.94137899	     -1.65501698	      0.00000000	      0.00000000	      0.00000000	      0.00000000	      0.00000000	      0.00000000	      0.00000000	      0.00000000	      0.00000000	      0.00000000	      0.00000000	      0.00000000	      0.00000000	      0.00000000	      0.00000000	      0.00000000	      0.00000000	      0.00000000	      0.00000000	      0.00000000	      0.00000000	      0.00000000	      0.00000000	      0.00000000	     54.47324054	     14.18564526	     86.15167011	     29.04617516	      0.00000000	     -0.39081069	      0.00000000	      0.00000000	      0.00000000	      0.00000000	      0.00000000	      0.00000000	      0.00000001	      0.00000000	     84.26488000	    -70.70660000	      0.00000000
      0.76684265	      7.54714530	      5.66519814	      6.06411452	      2.65868554	      3.17867581	      3.19240179	      3.31323394	      3.83834315	      5.62828408	      6.58215996	      0.00000000	      5.61272472	      4.40948782	      2.91863992	      2.45347833	      3.98700782	      3.51393114	      2.23850185	      1.48819150	      3.65571620	      5.55545812	      4.14700184	     22.64659810	     12.96572597	      3.62632564	      2.85415421	      4.08948316	     18.32771869	     11.11434417	     11.83554950	     16.17352090	      0.00000000	      0.92658601	     11.26405675	     13.95676229	      2.80329856	      2.87122539	     13.44990914	      3.94635182	      8.14005995	     10.10196682	      8.01662125	      1.91056799	      7.54714530	      5.66519814	      6.06411452	      2.65868554	      3.17867581	      3.19240179	      8.74407634	      4.08280298	      7.68192501	      7.21532671	      1.51960082	      5.61272472	      0.00000000	      2.91863992	      2.45347833	      3.98700782	      4.09674349	      2.23850185	      1.55855368	      3.65571620	      5.55545812	      4.14700184	     22.64659810	     12.96572597	      3.62632564	      2.85415421	      4.08948316	     10.66590409	      6.59202273	      7.56156268	      8.13072727	     13.95086296	      6.47770498	     31.08277948	     42.35782072	      2.56471233	      2.83157961	      8.45084596	      4.33347723	     12.44539299	      2.00570962	      5.37131370	      1.70453250	     25.00423142	     25.00423142	      8.99922628	      8.99922628	     26.80391411	     26.80391411	     78.61611854	     69.70697254	     12.87369478	     -7.00406189	      1.96496362	     32.30737132	    -78.61611854	    -69.70697254	    -12.87369478	      2.21275842	     -2.36725056	     -0.86994071	    107.96110045	     48.18917019	      0.97093192	      0.60976690	     -2.22877149	     44.06616738	   -107.96110045	    -48.18917019	     -0.97093192	     -0.86457405	      1.94519928	     -1.65910529	      0.00000000	      0.00000000	      0.00000000	      0.00000000	      0.00000000	      0.00000000	      0.00000000	      0.00000000	      0.00000000	      0.00000000	      0.00000000	      0.00000000	      0.00000000	      0.00000000	      0.00000000	      0.00000000	      0.00000000	      0.00000000	      0.00000000	      0.00000000	      0.00000000	      0.00000000	      0.00000000	      0.00000000	     54.56421358	     14.24651103	     86.17609048	     28.98414298	      0.00000000	     -0.41414621	      0.00000000	      0.00000000	      0.00000000	      0.00000000	      0.00000000	      0.00000000	      0.00000001	      0.00000000	     84.26488000	    -70.70660000	      0.00000000
      0.77010245	      7.54707853	      5.66515213	      6.06406466	      2.65866486	      3.17865345	      3.19237360	      3.31702236	      3.84002717	      5.63216750	      6.58866803	      0.00000000	      5.61267860	      4.08342429	      2.91861639	      2.45345808	      3.98697135	      3.51963395	      2.23848433	      1.48803148	      3.65568653	      5.55541290	      4.14696747	     22.64651469	     12.96563220	      3.62629682	      2.85414073	      4.08942891	     18.33409754	     11.12492080	     11.84833278	     16.19052969	      0.00000000	      0.92596055	     11.26813464	     13.92699278	      2.82276076	      2.84386595	     13.45101312	      3.96313605	      8.17021979	     10.11771165	      7.96048802	      1.92113049	      7.54707853	      5.66515213	      6.06406466	      2.65866486	      3.17865345	      3.19237360	      8.74397893	      4.08276720	      7.68184403	      7.21526934	      1.51958905	      5.61267860	      0.00000000	      2.91861639	      2.45345808	      3.98697135	      4.09672094	      2.23848433	      1.55854140	      3.65568653	      5.55541290	      4.14696747	     22.64651469	     12.96563220	      3.62629682	      2.85414073	      4.08942891	     10.66579390	      6.59196798	      7.56149866	      8.13065878	     13.95060611	      6.47758548	     31.08236845	     42.35766050	      2.56195128	      2.83034495	      8.45076308	      4.33342744	     12.44526974	      2.00569507	      5.37262968	      1.70488549	     25.00403650	     25.00403650	      8.99914988	      8.99914988	     26.80384548	     26.80384548	     78.24111583	     69.31048087	     12.80432658	     -6.96565856	      1.95511420	     32.15348565	    -78.24111583	    -69.31048087	    -12.80432658	      2.19955876	     -2.35478178	     -0.86670795	    108.32676300	     48.46259488	      1.06741300	      0.57575672	     -2.23673034	     44.21523455	   -108.32676300	    -48.46259488	     -1.06741300	     -0.86745703	      1.95150946	     -1.66235766	      0.00000000	      0.00000000	      0.00000000	      0.00000000	      0.00000000	      0.00000000	      0.00000000	      0.00000000	      0.00000000	      0.00000000	      0.00000000	      0.00000000	      0.00000000	      0.00000000	      0.00000000	      0.00000000	      0.00000000	      0.00000000	      0.00000000	      0.00000000	      0.00000000	      0.00000000	      0.00000000	      0.00000000	     54.67694725	     14.29320349	     86.18943381	     28.83700047	      0.00000000	     -0.51742580	      0.00000000	      0.00000000	      0.00000000	      0.00000000	      0.00000000	      0.00000000	      0.00000001	      0.00000000	     84.26488000	    -70.70660000	      0.00000000
